<svg xmlns="http://www.w3.org/2000/svg" width="64" height="65" fill="none"><path fill="#fff" d="M64 33c0 17.673-14.327 32-32 32C14.327 65 0 50.673 0 33 0 15.327 14.327 1 32 1c17.673 0 32 14.327 32 32z"/><path fill="#E4E7EA" fill-rule="evenodd" d="M48 46.602c3.118-3.664 5-8.413 5-13.602s-1.882-9.938-5-13.602v3.35A18.91 18.91 0 0 1 51 33a18.91 18.91 0 0 1-3 10.251v3.351zM42.251 49A18.911 18.911 0 0 1 32 52c-3.463 0-6.707-.926-9.5-2.542a1 1 0 1 0-1.003 1.73A20.908 20.908 0 0 0 32 54c5.189 0 9.938-1.882 13.602-5h-3.35zm-5.538-34.41v-.844l-.834.65c.28.058.559.123.834.193zm-12.491 1.07C17.607 18.632 13 25.278 13 33a18.94 18.94 0 0 0 5.565 13.435 1 1 0 0 1-1.414 1.414A20.927 20.927 0 0 1 11 33c0-8.386 4.917-15.625 12.026-18.99l1.196 1.65zm-1.143-3.866C14.807 15.278 9 23.461 9 33c0 12.703 10.297 23 23 23s23-10.297 23-23a1 1 0 0 1 2 0c0 13.807-11.193 25-25 25S7 46.807 7 33c0-12.343 8.945-22.597 20.706-24.633l-4.627 3.427z" clip-rule="evenodd"/><path fill="#FF4B1F" fill-rule="evenodd" d="M37.059.196A1 1 0 0 1 37.654 0H48a1 1 0 0 1 1 1v31.66a1 1 0 1 1-2 0V2h-9.016L23.39 12.808l4.657 6.427 8.051-6.278a1 1 0 0 1 1.615.789V48H47v-7.17a1 1 0 1 1 2 0V49a1 1 0 0 1-1 1H36.713a1 1 0 0 1-1-1V15.794L28.46 21.45a1 1 0 0 1-1.425-.202L21.19 13.18a1 1 0 0 1 .215-1.39L37.059.196z" clip-rule="evenodd"/></svg>