<svg xmlns="http://www.w3.org/2000/svg" width="64" height="65" fill="none"><circle cx="32" cy="33" r="32" fill="#fff"/><path fill="#E4E7EA" fill-rule="evenodd" d="M56 40.023c.65-2.228 1-4.585 1-7.023a1 1 0 1 0-2 0c0 2.206-.31 4.34-.89 6.36H56v.663zM45.602 49h-3.35A18.911 18.911 0 0 1 32 52a18.91 18.91 0 0 1-9.5-2.542 1 1 0 1 0-1.003 1.731A20.908 20.908 0 0 0 32 54c5.189 0 9.938-1.882 13.602-5zm6.418-9.64c.636-2.006.98-4.143.98-6.36 0-2.532-.448-4.96-1.27-7.207a31.377 31.377 0 0 1-1.558 1.64C50.71 29.195 51 31.064 51 33c0 2.23-.385 4.372-1.09 6.36h2.11zm-8.145-21.193a7.377 7.377 0 0 0 .301-2.279 20.885 20.885 0 0 0-10.08-3.785 7.11 7.11 0 0 0-1.4 1.91 18.914 18.914 0 0 1 11.18 4.154zm-20.968-1.854C17.005 19.536 13 25.8 13 33c0 5.247 2.126 9.996 5.565 13.435a1 1 0 0 1-1.414 1.414A20.927 20.927 0 0 1 11 33c0-7.626 4.065-14.302 10.145-17.98A18.78 18.78 0 0 0 21 16.054l1.907.259zm-1.105-3.934C14.216 16.137 9 23.959 9 33c0 12.703 10.297 23 23 23a22.932 22.932 0 0 0 16.523-7h2.687c-4.586 5.5-11.49 9-19.21 9C18.193 58 7 46.807 7 33c0-10.629 6.633-19.708 15.985-23.325a16.275 16.275 0 0 0-1.183 2.704z" clip-rule="evenodd"/><path fill="#FF4B1F" fill-rule="evenodd" d="M20.006 15.942C21.136 5.907 29.351 0 38.932 0c4.476 0 8.952 1.179 12.335 3.697 3.417 2.543 5.667 6.419 5.667 11.63 0 7.15-4.252 11.31-8.572 15.142h-.001l-5.446 4.82a1 1 0 0 1-1.325-1.497l5.445-4.82c4.314-3.827 7.899-7.457 7.899-13.645 0-4.56-1.935-7.848-4.86-10.025C47.113 3.099 43.088 2 38.931 2c-8.426 0-15.408 4.931-16.803 13.198l8.723 1.185c.353-1.823 1.093-3.428 2.202-4.643 1.325-1.452 3.136-2.298 5.28-2.298 1.982 0 3.705.654 4.938 1.85 1.235 1.197 1.906 2.869 1.906 4.762 0 3.257-1.775 5.684-4.168 7.926l-.014.014L22.666 40.5a1 1 0 1 1-1.339-1.487L39.65 22.514c2.252-2.113 3.528-4.042 3.528-6.46 0-1.409-.49-2.543-1.298-3.326-.81-.785-2.009-1.287-3.546-1.287-1.576 0-2.853.606-3.802 1.647-.965 1.057-1.631 2.61-1.846 4.53a1 1 0 0 1-1.128.88l-10.693-1.454a1 1 0 0 1-.859-1.102zm15.8 23.418a1 1 0 0 1 1-1H56a1 1 0 0 1 1 1V49a1 1 0 0 1-1 1H21.996a1 1 0 0 1-1-1v-4.622a1 1 0 1 1 2 0V48H55v-7.64H36.806a1 1 0 0 1-1-1z" clip-rule="evenodd"/></svg>