<svg xmlns="http://www.w3.org/2000/svg" width="64" height="66" fill="none"><path fill="#DECDBA" fill-rule="evenodd" d="M14 5a5 5 0 0 1 5-5h26a5 5 0 0 1 5 5v25h-2V10H16v3h-2V5zm34 0v3H16V5a3 3 0 0 1 3-3h26a3 3 0 0 1 3 3zM15 36a1 1 0 0 1 1 1v15h32v-4h2v13a5 5 0 0 1-5 5H19a5 5 0 0 1-5-5V37a1 1 0 0 1 1-1zm1 18v7a3 3 0 0 0 3 3h26a3 3 0 0 0 3-3v-7H16zM29 5a1 1 0 0 1 1-1h5a1 1 0 1 1 0 2h-5a1 1 0 0 1-1-1zm5 11a1 1 0 1 0 0 2h7a1 1 0 1 0 0-2h-7zm-1 5a1 1 0 0 1 1-1h9a1 1 0 1 1 0 2h-9a1 1 0 0 1-1-1zm1 3a1 1 0 1 0 0 2h5a1 1 0 1 0 0-2h-5zM23 39a1 1 0 0 1 1-1h6a1 1 0 1 1 0 2h-6a1 1 0 0 1-1-1zm1 3a1 1 0 1 0 0 2h6a1 1 0 1 0 0-2h-6zm8 16a1 1 0 1 0 0 2 1 1 0 1 1 0 2 3 3 0 1 1 3-3 1 1 0 1 1-2 0 1 1 0 0 0-1-1zM21 37a1 1 0 1 0-2 0v6a5 5 0 0 0 5 5h8a1 1 0 1 0 0-2h-8a3 3 0 0 1-3-3v-6z" clip-rule="evenodd"/><path fill="#FF4B1F" fill-rule="evenodd" d="M31 17a5 5 0 0 0-5-5H14a5 5 0 0 0-5 5v2a1 1 0 1 0 2 0v-2a3 3 0 0 1 3-3h12a3 3 0 0 1 3 3v12a3 3 0 0 1-3 3H14a3 3 0 0 1-3-3v-4a1 1 0 1 0-2 0v4a5 5 0 0 0 5 5h12a5 5 0 0 0 5-5V17zm2 22c0-6.075 4.925-11 11-11s11 4.925 11 11-4.925 11-11 11-11-4.925-11-11zm11-9a9 9 0 1 0 0 18 9 9 0 0 0 0-18zm-1.445 4.168A1 1 0 0 0 41 35v8a1 1 0 0 0 1.555.832l6-4a1 1 0 0 0 0-1.664l-6-4zM46.197 39L43 41.132v-4.264L46.197 39zM13 17a1 1 0 0 1 1-1h12a1 1 0 1 1 0 2H14a1 1 0 0 1-1-1zm1 3a1 1 0 1 0 0 2h10a1 1 0 1 0 0-2H14zm-1 5a1 1 0 0 1 1-1h12a1 1 0 1 1 0 2H14a1 1 0 0 1-1-1zm1 3a1 1 0 1 0 0 2h6a1 1 0 1 0 0-2h-6z" clip-rule="evenodd"/></svg>