<svg xmlns="http://www.w3.org/2000/svg" width="65" height="65" fill="none"><path fill="#fff" fill-rule="evenodd" d="M21 31a12.955 12.955 0 0 0-9.098 3.714 1 1 0 1 1-1.4-1.428A14.955 14.955 0 0 1 21 29c8.284 0 15 6.716 15 15 0 8.284-6.716 15-15 15-8.284 0-15-6.716-15-15 0-1.886.348-3.692.985-5.357a1 1 0 0 1 1.868.714A12.967 12.967 0 0 0 8 44c0 7.18 5.82 13 13 13s13-5.82 13-13-5.82-13-13-13zm9 18a2 2 0 1 0-4 0 2 2 0 0 0 4 0zm-16-9a2 2 0 1 1 0 4 2 2 0 0 1 0-4zm10-5a2 2 0 1 1 0 4 2 2 0 0 1 0-4zm4 2a4 4 0 1 0-8 0 4 4 0 0 0 8 0zm-6 15a1 1 0 1 0-2 0 1 1 0 0 0 2 0zm-1-3a3 3 0 1 1 0 6 3 3 0 0 1 0-6z" clip-rule="evenodd"/><path fill="#433B9B" fill-rule="evenodd" d="M58.707 1.707A1 1 0 0 0 57.293.293l-8 8a1 1 0 0 0 1.414 1.414l8-8zM7.563 30.567c-7.418 7.42-7.417 19.449.002 26.868 7.418 7.419 19.446 7.42 26.866.004l11.854-12.138a1 1 0 0 1 1.43 1.398L35.85 58.849c-8.2 8.201-21.497 8.201-29.698 0-8.201-8.2-8.201-21.497 0-29.698l.004-.004L31.297 4.289a1 1 0 0 1 1.406 1.422L7.565 30.565l-.002.002zm43.73 11.14a1 1 0 0 1 0-1.414l12-12a1 1 0 0 1 1.414 1.414l-12 12a1 1 0 0 1-1.414 0zm-7.586-13.414a1 1 0 0 1 0 1.414l-12 12a1 1 0 0 1-1.414-1.414l12-12a1 1 0 0 1 1.414 0zm21-19.586a1 1 0 0 0-1.414-1.414l-14 14a1 1 0 0 0 1.414 1.414l14-14zm-22 7.586a1 1 0 0 1 0 1.414l-10 10a1 1 0 0 1-1.414-1.414l10-10a1 1 0 0 1 1.414 0zm-10-4a1 1 0 0 1 0 1.414l-8 8a1 1 0 0 1-1.414-1.414l8-8a1 1 0 0 1 1.414 0zm12 24.414a1 1 0 0 0-1.414-1.414l-4 4a1 1 0 0 0 1.414 1.414l4-4z" clip-rule="evenodd"/></svg>