<svg xmlns="http://www.w3.org/2000/svg" width="35" height="34" fill="none"><path fill="#fff" fill-rule="evenodd" d="M20.142 19a4.992 4.992 0 0 0-2 4c0 .913.245 1.768.672 2.505a2 2 0 0 1 3.136 2.352 5.017 5.017 0 0 0 4.399-1.02 2 2 0 1 1 1.786-3.573 5.001 5.001 0 0 0-4.228-5.206 2 2 0 1 1-3.765.942zm3-3a7 7 0 1 0 0 14 7 7 0 0 0 0-14z" clip-rule="evenodd"/><path fill="#FF8C70" fill-rule="evenodd" d="M5.85.293a1 1 0 0 0-1.415 1.414l11 11a1 1 0 0 0 1.414-1.414l-11-11zm4 11a1 1 0 0 0-1.415 1.414l5 5a1 1 0 0 0 1.414-1.414l-5-5zm8.585 3a1 1 0 0 1 1.414 0l2 2a1 1 0 0 1-1.414 1.414l-2-2a1 1 0 0 1 0-1.414zm-13.586-8a1 1 0 1 0-1.414 1.414l2 2A1 1 0 0 0 6.85 8.293l-2-2zm9.586-6a1 1 0 0 1 1.414 0l3 3a1 1 0 0 1-1.414 1.414l-3-3a1 1 0 0 1 0-1.414zm7.556 6a1 1 0 1 0-1.414 1.414l8.93 8.929a9 9 0 1 1-12.729 12.728L1.708 14.293a1 1 0 1 0-1.415 1.414l15.071 15.071c4.296 4.296 11.26 4.296 15.556 0 4.296-4.296 4.296-11.26 0-15.556l-8.929-8.93z" clip-rule="evenodd"/></svg>