<svg xmlns="http://www.w3.org/2000/svg" width="258" height="256" fill="none"><path fill="#FF8C70" fill-rule="evenodd" d="M17 85c-8.284 0-15 6.716-15 15v56c0 8.284 6.716 15 15 15h172.686a9 9 0 0 1 6.364 2.636l26.243 26.243c.63.63 1.707.183 1.707-.707V180a9 9 0 0 1 9-9h8c8.284 0 15-6.716 15-15v-56c0-8.284-6.716-15-15-15H17zM0 100c0-9.389 7.611-17 17-17h224c9.389 0 17 7.611 17 17v56c0 9.389-7.611 17-17 17h-8a7 7 0 0 0-7 7v19.172c0 2.672-3.231 4.011-5.121 2.121l-26.243-26.243a6.999 6.999 0 0 0-4.95-2.05H17c-9.389 0-17-7.611-17-17v-56z" clip-rule="evenodd"/><path fill="#fff" d="M45.73 125.59l-.72 5.82h4.17v2.19h-4.44l-.66 5.4h-2.13l.66-5.4h-5.67l-.66 5.4h-2.13l.66-5.4h-4.14v-2.19h4.41l.75-5.82h-4.2v-2.19h4.47l.66-5.4h2.13l-.66 5.4h5.64l.66-5.4h2.13l-.66 5.4h4.14v2.19h-4.41zm-2.13 0h-5.64l-.75 5.82h5.67l.72-5.82zM51.643 145c-.7 0-1.35-.08-1.95-.24-.6-.16-1.1-.4-1.5-.72l.93-2.22c.6.5 1.38.75 2.34.75.76 0 1.34-.24 1.74-.72.42-.46.63-1.15.63-2.07V123.1h2.88v16.62c0 1.64-.44 2.93-1.32 3.87-.88.94-2.13 1.41-3.75 1.41zm3.63-24.96c-.56 0-1.03-.18-1.41-.54-.36-.36-.54-.8-.54-1.32s.18-.96.54-1.32c.38-.38.85-.57 1.41-.57.56 0 1.02.18 1.38.54.38.34.57.77.57 1.29 0 .54-.19 1-.57 1.38-.36.36-.82.54-1.38.54zm6.936 3.06h2.88V139h-2.88v-15.9zm1.44-3.06c-.56 0-1.03-.18-1.41-.54-.36-.36-.54-.8-.54-1.32s.18-.96.54-1.32c.38-.38.85-.57 1.41-.57.56 0 1.02.18 1.38.54.38.34.57.77.57 1.29 0 .54-.19 1-.57 1.38-.36.36-.82.54-1.38.54zm9.698 5.73c.5-.92 1.24-1.62 2.22-2.1.98-.48 2.17-.72 3.57-.72v2.79c-.16-.02-.38-.03-.66-.03-1.56 0-2.79.47-3.69 1.41-.88.92-1.32 2.24-1.32 3.96V139h-2.88v-15.9h2.76v2.67zm24.193-2.67V139h-2.76v-2.52c-.64.88-1.45 1.55-2.43 2.01-.98.46-2.06.69-3.24.69-1.54 0-2.92-.34-4.14-1.02a7.44 7.44 0 0 1-2.88-2.85c-.68-1.24-1.02-2.66-1.02-4.26 0-1.6.34-3.01 1.02-4.23a7.44 7.44 0 0 1 2.88-2.85c1.22-.68 2.6-1.02 4.14-1.02 1.14 0 2.19.22 3.15.66.96.42 1.76 1.05 2.4 1.89v-2.4h2.88zm-8.19 13.56c1 0 1.91-.23 2.73-.69.82-.48 1.46-1.14 1.92-1.98.46-.86.69-1.84.69-2.94 0-1.1-.23-2.07-.69-2.91-.46-.86-1.1-1.52-1.92-1.98-.82-.46-1.73-.69-2.73-.69-1.02 0-1.94.23-2.76.69-.8.46-1.44 1.12-1.92 1.98-.46.84-.69 1.81-.69 2.91s.23 2.08.69 2.94c.48.84 1.12 1.5 1.92 1.98.82.46 1.74.69 2.76.69zm28.64-19.92V139h-2.76v-2.52c-.64.88-1.45 1.55-2.43 2.01-.98.46-2.06.69-3.24.69-1.54 0-2.92-.34-4.14-1.02a7.44 7.44 0 0 1-2.88-2.85c-.68-1.24-1.02-2.66-1.02-4.26 0-1.6.34-3.01 1.02-4.23a7.44 7.44 0 0 1 2.88-2.85c1.22-.68 2.6-1.02 4.14-1.02 1.14 0 2.19.22 3.15.66.96.42 1.76 1.05 2.4 1.89v-8.76h2.88zm-8.19 19.92c1 0 1.91-.23 2.73-.69.82-.48 1.46-1.14 1.92-1.98.46-.86.69-1.84.69-2.94 0-1.1-.23-2.07-.69-2.91-.46-.86-1.1-1.52-1.92-1.98-.82-.46-1.73-.69-2.73-.69-1.02 0-1.94.23-2.76.69-.8.46-1.44 1.12-1.92 1.98-.46.84-.69 1.81-.69 2.91s.23 2.08.69 2.94c.48.84 1.12 1.5 1.92 1.98.82.46 1.74.69 2.76.69zm28.639-13.56V139h-2.76v-2.52c-.64.88-1.45 1.55-2.43 2.01-.98.46-2.06.69-3.24.69-1.54 0-2.92-.34-4.14-1.02a7.44 7.44 0 0 1-2.88-2.85c-.68-1.24-1.02-2.66-1.02-4.26 0-1.6.34-3.01 1.02-4.23a7.44 7.44 0 0 1 2.88-2.85c1.22-.68 2.6-1.02 4.14-1.02 1.14 0 2.19.22 3.15.66.96.42 1.76 1.05 2.4 1.89v-2.4h2.88zm-8.19 13.56c1 0 1.91-.23 2.73-.69.82-.48 1.46-1.14 1.92-1.98.46-.86.69-1.84.69-2.94 0-1.1-.23-2.07-.69-2.91-.46-.86-1.1-1.52-1.92-1.98-.82-.46-1.73-.69-2.73-.69-1.02 0-1.94.23-2.76.69-.8.46-1.44 1.12-1.92 1.98-.46.84-.69 1.81-.69 2.91s.23 2.08.69 2.94c.48.84 1.12 1.5 1.92 1.98.82.46 1.74.69 2.76.69zm28.459-13.56v13.74c0 2.78-.65 4.83-1.95 6.15-1.3 1.34-3.25 2.01-5.85 2.01-1.42 0-2.78-.21-4.08-.63-1.28-.4-2.33-.98-3.15-1.74l1.41-2.22c.7.64 1.54 1.14 2.52 1.5 1 .36 2.05.54 3.15.54 1.74 0 3.02-.44 3.84-1.32.82-.86 1.23-2.19 1.23-3.99v-1.17c-.58.76-1.33 1.35-2.25 1.77-.92.4-1.92.6-3 .6-2.12 0-3.79-.58-5.01-1.74-1.22-1.16-1.83-2.88-1.83-5.16v-8.34h2.88v8.01c0 1.52.37 2.68 1.11 3.48.74.78 1.8 1.17 3.18 1.17 1.52 0 2.72-.46 3.6-1.38.88-.92 1.32-2.22 1.32-3.9v-7.38h2.88zm18.953 13.29V139h-15.09v-2.04l8.55-8.25c1.04-1 1.74-1.86 2.1-2.58.36-.74.54-1.48.54-2.22 0-1.1-.39-1.95-1.17-2.55-.76-.62-1.86-.93-3.3-.93-2.32 0-4.11.76-5.37 2.28l-2.04-1.77c.82-1 1.89-1.78 3.21-2.34 1.34-.56 2.83-.84 4.47-.84 2.2 0 3.95.53 5.25 1.59 1.3 1.04 1.95 2.46 1.95 4.26 0 1.12-.24 2.18-.72 3.18s-1.39 2.14-2.73 3.42l-6.42 6.18h10.77zm10.959 2.85c-1.66 0-3.14-.42-4.44-1.26-1.28-.86-2.29-2.1-3.03-3.72-.74-1.62-1.11-3.54-1.11-5.76 0-2.22.37-4.14 1.11-5.76.74-1.62 1.75-2.85 3.03-3.69 1.3-.86 2.78-1.29 4.44-1.29 1.64 0 3.1.43 4.38 1.29 1.3.84 2.32 2.07 3.06 3.69.74 1.62 1.11 3.54 1.11 5.76 0 2.22-.37 4.14-1.11 5.76-.74 1.62-1.76 2.86-3.06 3.72-1.28.84-2.74 1.26-4.38 1.26zm0-2.67c1.68 0 3.02-.69 4.02-2.07 1.02-1.38 1.53-3.38 1.53-6s-.51-4.62-1.53-6c-1-1.38-2.34-2.07-4.02-2.07-1.7 0-3.06.69-4.08 2.07-1 1.38-1.5 3.38-1.5 6s.5 4.62 1.5 6c1.02 1.38 2.38 2.07 4.08 2.07zM206.471 118v21h-2.97v-18.39h-4.74V118h7.71zm11.404-.24c2.82 0 4.99.91 6.51 2.73 1.54 1.82 2.31 4.4 2.31 7.74 0 2.34-.42 4.34-1.26 6-.82 1.64-1.98 2.89-3.48 3.75-1.48.84-3.21 1.26-5.19 1.26-1.02 0-1.98-.1-2.88-.3-.9-.22-1.68-.53-2.34-.93l1.14-2.34c1.02.66 2.37.99 4.05.99 2.18 0 3.88-.67 5.1-2.01 1.24-1.36 1.86-3.33 1.86-5.91v-.75c-.6.9-1.43 1.59-2.49 2.07-1.06.46-2.25.69-3.57.69-1.38 0-2.62-.26-3.72-.78-1.08-.52-1.93-1.26-2.55-2.22-.6-.98-.9-2.1-.9-3.36 0-1.32.32-2.48.96-3.48.66-1 1.55-1.77 2.67-2.31 1.12-.56 2.38-.84 3.78-.84zm.27 10.56c.94 0 1.78-.18 2.52-.54.74-.36 1.31-.85 1.71-1.47.42-.62.63-1.31.63-2.07 0-.74-.2-1.41-.6-2.01-.38-.62-.95-1.11-1.71-1.47-.74-.38-1.64-.57-2.7-.57-1.38 0-2.5.37-3.36 1.11-.84.74-1.26 1.73-1.26 2.97 0 1.24.43 2.23 1.29 2.97.86.72 2.02 1.08 3.48 1.08z"/></svg>