<svg xmlns="http://www.w3.org/2000/svg" width="34" height="33" fill="none"><path fill="#DECDBA" fill-rule="evenodd" d="M13.37 20.105a1 1 0 1 0-.117-1.996 52.11 52.11 0 0 0-.826.054c-3.37.247-6.332.761-8.481 1.468-1.069.35-1.994.767-2.673 1.262C.62 21.37 0 22.067 0 23c0 1.124.887 1.909 1.749 2.418.928.549 2.205 1.008 3.695 1.38C8.439 27.549 12.524 28 17 28c2.547 0 4.963-.147 7.12-.41a1 1 0 1 0-.24-1.985A57.518 57.518 0 0 1 17 26c-4.361 0-8.276-.443-11.071-1.142-1.406-.351-2.472-.753-3.163-1.162-.345-.204-.553-.384-.667-.523A.57.57 0 0 1 2 23.007V23s0-.006.005-.02a.385.385 0 0 1 .047-.09c.061-.091.182-.222.4-.38.438-.32 1.142-.659 2.118-.98 1.94-.637 4.726-1.133 8.003-1.372.263-.02.529-.037.797-.053zm7.377-1.996a1 1 0 1 0-.117 1.996c3.48.206 6.472.697 8.563 1.35 1.053.328 1.82.68 2.303 1.017.24.167.375.307.445.408.033.047.048.08.054.098A.073.073 0 0 1 32 23l-.002.012a.228.228 0 0 1-.02.047.944.944 0 0 1-.19.235c-.227.216-.615.47-1.199.732a1 1 0 0 0 .822 1.824c.69-.311 1.303-.676 1.757-1.109.455-.434.832-1.019.832-1.741 0-.97-.667-1.684-1.358-2.168-.723-.505-1.71-.93-2.853-1.287-2.3-.717-5.464-1.225-9.042-1.436zM17 24c2.21 0 4-.448 4-1s-1.79-1-4-1-4 .448-4 1 1.79 1 4 1z" clip-rule="evenodd"/><path fill="#FF4B1F" fill-rule="evenodd" d="M14.445 2.601A5.71 5.71 0 0 1 17 2c3.27 0 6 2.791 6 6.333 0 6.194-4.24 11.375-6 13.248-1.76-1.873-6-7.054-6-13.248 0-1.412.437-2.71 1.171-3.76a1 1 0 1 0-1.638-1.147A8.535 8.535 0 0 0 9 8.333c0 7.116 4.869 12.856 6.627 14.707a1.885 1.885 0 0 0 2.746 0C20.13 21.19 25 15.45 25 8.333 25 3.775 21.462 0 17 0a7.71 7.71 0 0 0-3.445.81 1 1 0 0 0 .89 1.791zM16 8a1 1 0 1 1 2 0 1 1 0 0 1-2 0zm1-3a3 3 0 1 0 0 6 3 3 0 0 0 0-6z" clip-rule="evenodd"/></svg>