<svg xmlns="http://www.w3.org/2000/svg" width="34" height="34" fill="none"><path fill="#FF4B1F" fill-rule="evenodd" d="M6.025 16.258A10.995 10.995 0 0 0 11.5 26.529a1 1 0 0 1-1.002 1.731A12.995 12.995 0 0 1 4 17C4 9.82 9.82 4 17 4s13 5.82 13 13-5.82 13-13 13c-.737 0-1.46-.061-2.165-.18a1 1 0 0 1 .33-1.972c.596.1 1.21.152 1.835.152 2.056 0 3.98-.564 5.627-1.546a2 2 0 1 1 2.996-2.623A10.953 10.953 0 0 0 28 17c0-6.075-4.925-11-11-11a10.99 10.99 0 0 0-9.227 5.008c.075-.005.15-.008.227-.008a1 1 0 1 1 0 2 1 1 0 1 0 0 2 1 1 0 1 1 0 2c-.757 0-1.448-.28-1.975-.742zM14 18a2 2 0 1 0 0 4 1 1 0 1 1 0 2 4 4 0 1 1 4-4 1 1 0 1 1-2 0 2 2 0 0 0-2-2zm6-5a1 1 0 1 1 2 0 1 1 0 0 1-2 0zm1-3a3 3 0 1 0 0 6 3 3 0 0 0 0-6z" clip-rule="evenodd"/><path fill="#DECDBA" fill-rule="evenodd" d="M8 0a2 2 0 1 0 0 4 2 2 0 0 0 0-4zm19.931 5.274a1 1 0 0 1 1.414.038 16.973 16.973 0 0 1 4.124 7.456 1 1 0 0 1-1.938.496 14.972 14.972 0 0 0-3.638-6.576 1 1 0 0 1 .038-1.414zM33 18.008a1 1 0 0 1 .868 1.116 16.908 16.908 0 0 1-2.811 7.44 1 1 0 0 1-1.653-1.127 14.908 14.908 0 0 0 2.48-6.56 1 1 0 0 1 1.116-.87zM3 30a1 1 0 1 0 0 2 1 1 0 0 0 0-2zm-3 1a3 3 0 1 1 6 0 3 3 0 0 1-6 0z" clip-rule="evenodd"/></svg>