<svg xmlns="http://www.w3.org/2000/svg" width="130" height="130" fill="none"><path fill="url(#a)" fill-rule="evenodd" d="M2 65C2 30.206 30.206 2 65 2s63 28.206 63 63c0 17.043-6.766 32.504-17.762 43.846a1 1 0 0 0 1.436 1.392C123.017 98.538 130 82.584 130 65c0-35.898-29.101-65-65-65C29.102 0 0 29.102 0 65c0 35.899 29.102 65 65 65 11.84 0 22.943-3.167 32.506-8.7a1 1 0 1 0-1.002-1.731C87.238 124.931 76.48 128 65 128 30.206 128 2 99.794 2 65zm118 0c0 30.376-24.624 55-55 55S10 95.376 10 65s24.624-55 55-55c20.014 0 37.532 10.69 47.155 26.675a1 1 0 1 0 1.713-1.032C103.898 19.082 85.744 8 65 8 33.52 8 8 33.52 8 65s25.52 57 57 57 57-25.52 57-57a1 1 0 0 0-2 0z" clip-rule="evenodd"/><path fill="#fff" d="M54 79.151v-28.42a1 1 0 0 1 1.5-.866l23.09 13.322a1 1 0 0 1 .048 1.703l-23.09 15.098A1 1 0 0 1 54 79.151z"/><defs><linearGradient id="a" x2="147.222" y2="23.896" gradientUnits="userSpaceOnUse"><stop stop-color="#FF4B1F"/><stop offset="1" stop-color="#F53000"/></linearGradient></defs></svg>