<svg xmlns="http://www.w3.org/2000/svg" width="130" height="130" fill="none"><path fill="#FF8C70" fill-rule="evenodd" d="M65 2c-11.433 0-22.152 3.045-31.393 8.367a1 1 0 0 1-.998-1.734C42.145 3.141 53.206 0 65 0s22.855 3.141 32.391 8.633a1 1 0 1 1-.998 1.734C87.152 5.045 76.433 2 65 2zm54.937 30.134a1 1 0 0 1 1.367.365C126.835 42.061 130 53.162 130 65c0 11.793-3.141 22.855-8.633 32.391a1 1 0 0 1-1.734-.998C124.955 87.152 128 76.433 128 65c0-11.477-3.068-22.234-8.428-31.5a1 1 0 0 1 .365-1.366zm-109.938.107a1 1 0 0 1 .368 1.366C5.045 42.848 2 53.567 2 65s3.045 22.152 8.367 31.393a1 1 0 0 1-1.734.998C3.141 87.855 0 76.793 0 65s3.141-22.855 8.633-32.392A1 1 0 0 1 10 32.242zM32.241 120a1 1 0 0 1 1.366-.368C42.848 124.955 53.567 128 65 128a62.958 62.958 0 0 0 19.688-3.137 1 1 0 0 1 .624 1.9A64.94 64.94 0 0 1 65 130c-11.793 0-22.855-3.141-32.392-8.633a1 1 0 0 1-.367-1.366zm61.466-83.708a1 1 0 0 1 0 1.414l-5 5a1 1 0 0 1-1.414-1.414l5-5a1 1 0 0 1 1.414 0zm-51 51a1 1 0 0 1 0 1.414l-9.255 9.255a1 1 0 0 1-1.414-1.414l9.255-9.255a1 1 0 0 1 1.414 0zm-9-55a1 1 0 0 0-1.414 1.414l9 9a1 1 0 0 0 1.414-1.414l-9-9zm55 55a1 1 0 0 0-1.414 1.414l9.255 9.255a1 1 0 0 0 1.414-1.414l-9.255-9.255z" clip-rule="evenodd"/><path fill="#fff" fill-rule="evenodd" d="M21 6c8.284 0 15 6.716 15 15 0 8.284-6.716 15-15 15-8.284 0-15-6.716-15-15a14.95 14.95 0 0 1 4.393-10.607A1 1 0 0 0 8.98 8.98 16.95 16.95 0 0 0 4 21c0 9.389 7.611 17 17 17s17-7.611 17-17S30.389 4 21 4a1 1 0 1 0 0 2zm73 15c0-8.284 6.716-15 15-15 8.284 0 15 6.716 15 15 0 8.284-6.716 15-15 15-8.284 0-15-6.716-15-15zm15-17c-9.389 0-17 7.611-17 17s7.611 17 17 17 17-7.611 17-17-7.611-17-17-17zM21 94c-8.284 0-15 6.716-15 15 0 8.284 6.716 15 15 15 8.284 0 15-6.716 15-15 0-8.284-6.716-15-15-15zM4 109c0-9.389 7.611-17 17-17s17 7.611 17 17-7.611 17-17 17-17-7.611-17-17zm90 0c0-8.284 6.716-15 15-15 8.284 0 15 6.716 15 15 0 8.284-6.716 15-15 15-8.284 0-15-6.716-15-15zm15-17c-9.389 0-17 7.611-17 17s7.611 17 17 17 17-7.611 17-17-7.611-17-17-17zM21 16a5 5 0 1 0 0 10 5 5 0 0 0 0-10zm-7 5a7 7 0 1 1 14 0 7 7 0 0 1-14 0zm90 0a5 5 0 1 1 10 0 5 5 0 0 1-10 0zm5-7a7 7 0 1 0 0 14 7 7 0 0 0 0-14zm-88 90a5 5 0 1 0 0 10 5 5 0 0 0 0-10zm-7 5a7 7 0 1 1 14 0 7 7 0 0 1-14 0zm90 0a5 5 0 1 1 10.001.001A5 5 0 0 1 104 109zm5-7a7 7 0 1 0 0 14 7 7 0 0 0 0-14zM65 34c-13.736 0-25.388 8.935-29.456 21.312a1 1 0 1 1-1.9-.624C37.974 41.514 50.374 32 65 32c18.225 0 33 14.775 33 33S83.225 98 65 98 32 83.225 32 65a1 1 0 1 1 2 0 30.875 30.875 0 0 0 7.176 19.837c.481-2.938 1.908-5.6 3.843-7.644A1.006 1.006 0 0 1 45 77V55a5 5 0 0 1 5-5h8c.022 0 .044 0 .065.002A12.94 12.94 0 0 1 65 48c2.577 0 4.98.75 7 2.044V50h8a5 5 0 0 1 5 5v22.213c1.925 2.042 3.344 4.696 3.823 7.624A30.875 30.875 0 0 0 96 65c0-17.12-13.88-31-31-31zm18 41.443V55a3 3 0 0 0-3-3h-5.62A12.956 12.956 0 0 1 78 61a3 3 0 0 1 3 3v5a3 3 0 0 1-3 3h-.106c-.083.387-.214.76-.39 1.111 1.956.288 3.842 1.12 5.496 2.332zm-30.505-2.332c-1.955.288-3.841 1.12-5.495 2.332V55a3 3 0 0 1 3-3h5.62A12.956 12.956 0 0 0 52 61a3 3 0 0 0-3 3v5a3 3 0 0 0 3 3h.106c.083.387.214.76.39 1.111zM76 71.005V65c0-3.181-3.641-7-11-7s-11 3.819-11 7v6.005c0 .912.456 1.764 1.215 2.27a17.64 17.64 0 0 0 19.57 0A2.728 2.728 0 0 0 76 71.005zM78 65v5a1 1 0 0 0 1-1v-5a1 1 0 0 0-1-1v2zm-27-1a1 1 0 0 1 1-1v7a1 1 0 0 1-1-1v-5zm3.041-3.96C54.528 54.413 59.25 50 65 50c5.751 0 10.472 4.414 10.959 10.04C73.759 57.635 69.904 56 65 56s-8.759 1.636-10.959 4.04zm.134 14.945c-.057.01-.115.015-.175.015-1.276 0-2.57.307-3.803.869C51.943 77.736 56.817 81 65 81a1 1 0 1 1 0 2c-9.097 0-14.633-3.796-16.576-6.117a12.62 12.62 0 0 0-1.948 1.68c-2.062 2.176-3.43 5.125-3.475 8.278A31.112 31.112 0 0 0 50 92.136V87a1 1 0 1 1 2 0v6c0 .05-.004.098-.01.146 1.29.598 2.63 1.11 4.01 1.527V94a5 5 0 0 1 5-5h8a5 5 0 0 1 5 5v.673a30.83 30.83 0 0 0 4.01-1.527A1.002 1.002 0 0 1 78 93v-6a1 1 0 1 1 2 0v5.136a31.112 31.112 0 0 0 6.999-5.294c-.045-3.154-1.413-6.103-3.475-8.28a12.62 12.62 0 0 0-1.948-1.68c-1.365 1.632-4.486 3.97-9.324 5.229a1 1 0 1 1-.504-1.936c4.206-1.095 6.864-3.033 8.055-4.306C78.57 75.307 77.276 75 76 75c-.06 0-.118-.005-.175-.015a19.64 19.64 0 0 1-21.65 0zM65 96c-2.407 0-4.75-.274-7-.794V94a3 3 0 0 1 3-3h8a3 3 0 0 1 3 3v1.206c-2.25.52-4.593.794-7 .794zm-2-35c-1.04 0-3.432.465-5.625 2.22a1 1 0 0 0 1.25 1.56C60.432 63.336 62.373 63 63 63a1 1 0 1 0 0-2z" clip-rule="evenodd"/></svg>