<svg xmlns="http://www.w3.org/2000/svg" width="64" height="66" fill="none"><path fill="#fff" fill-rule="evenodd" d="M13.059 30.496C13.825 20.706 22.013 13 32 13c3.077 0 5.98.73 8.55 2.027a1 1 0 1 0 .9-1.785A20.916 20.916 0 0 0 32 11c-7.88 0-14.747 4.34-18.34 10.762-2.463-.107-4.576-.01-6.173.324-.839.176-1.59.428-2.187.79-.602.365-1.117.89-1.312 1.618-.195.727-.012 1.438.325 2.054.335.611.858 1.205 1.495 1.775 1.217 1.09 3.002 2.234 5.194 3.376L11 32c0 11.598 9.402 21 21 21 .296 0 .591-.006.884-.018 7.508-.312 13.998-4.564 17.456-10.744 1.714.075 3.244.05 4.543-.08 1.275-.128 2.389-.362 3.25-.741.846-.372 1.626-.967 1.879-1.911.198-.74.006-1.46-.342-2.084-.345-.619-.884-1.221-1.54-1.8-1.214-1.073-2.974-2.197-5.132-3.32L53 32c0-2.783-.542-5.442-1.527-7.875a1 1 0 1 0-1.854.75A18.946 18.946 0 0 1 51 32c0 2.924-.66 5.694-1.84 8.169a67.6 67.6 0 0 1-4.032-.407 1 1 0 0 0-.256 1.984c1.12.145 2.2.261 3.228.348-3.228 5.138-8.848 8.622-15.298 8.89-.266.01-.533.016-.802.016-10.262 0-18.623-8.135-18.988-18.308 4.541 2.136 10.523 4.287 17.176 6.07 2.44.653 4.823 1.218 7.109 1.692a1 1 0 0 0 .406-1.958 126.083 126.083 0 0 1-6.997-1.666c-6.982-1.871-13.165-4.14-17.647-6.334zm-1.913-.987a20.86 20.86 0 0 1 1.545-5.779c-1.98-.045-3.6.064-4.794.314-.72.15-1.23.342-1.559.542-.324.196-.398.353-.418.426-.02.073-.033.245.148.576.184.337.528.756 1.074 1.246.91.814 2.261 1.721 4.004 2.675zm40.163 10.76c1.272.03 2.405-.005 3.375-.102 1.178-.118 2.056-.323 2.644-.58.602-.266.727-.506.752-.599.02-.074.034-.25-.157-.592-.192-.346-.551-.776-1.117-1.276-.91-.804-2.244-1.694-3.952-2.629a20.861 20.861 0 0 1-1.545 5.779z" clip-rule="evenodd"/><path fill="#433B9B" fill-rule="evenodd" d="M5 12a1 1 0 1 1 2 0 1 1 0 0 1-2 0zm1-3a3 3 0 1 0 0 6 3 3 0 0 0 0-6zm41 3a6 6 0 1 0 0 12 6 6 0 0 0 0-12zm-8 6a8 8 0 1 1 16 0 8 8 0 0 1-16 0zM10 55a4 4 0 1 0 1.745 7.6 1 1 0 0 1 .874 1.8 6 6 0 1 1 2.881-3 1 1 0 1 1-1.832-.8A4 4 0 0 0 10 55zm38 2a2 2 0 1 1 4 0 2 2 0 0 1-4 0zm-10 5a2 2 0 1 0 0 4 2 2 0 0 0 0-4z" clip-rule="evenodd"/></svg>