<svg xmlns="http://www.w3.org/2000/svg" width="24" height="24" fill="none"><path fill="#55ACEE" d="M12 23.999c6.628 0 12-5.372 12-12C24 5.372 18.628 0 12 0 5.374 0 .002 5.372.002 12c0 6.627 5.372 11.999 12 11.999z"/><path fill="#fff" d="M19.35 8.624a5.722 5.722 0 0 1-1.648.45 2.876 2.876 0 0 0 1.262-1.586 5.742 5.742 0 0 1-1.822.696 2.869 2.869 0 0 0-4.888 2.616 8.142 8.142 0 0 1-5.911-2.997 2.868 2.868 0 0 0 .887 3.83 2.849 2.849 0 0 1-1.299-.36v.037a2.87 2.87 0 0 0 2.3 2.812 2.857 2.857 0 0 1-1.294.05 2.871 2.871 0 0 0 2.679 1.992A5.755 5.755 0 0 1 5.37 17.35a8.113 8.113 0 0 0 4.396 1.29c5.276 0 8.16-4.371 8.16-8.162 0-.124-.002-.248-.008-.37a5.817 5.817 0 0 0 1.432-1.485z"/></svg>