<svg xmlns="http://www.w3.org/2000/svg" width="24" height="24" fill="none"><path fill="#fff" fill-rule="evenodd" d="M15.68 0H8.32C1.6 0 0 1.6 0 8.32v7.36C0 22.4 1.6 24 8.32 24h7.36C22.4 24 24 22.4 24 15.68V8.32C24 1.6 22.4 0 15.68 0zm3.445 7.625c.53 0 .64.272.53.643-.223 1.02-2.355 4.023-2.355 4.023-.186.297-.26.445 0 .78.091.127.286.318.51.537.229.224.488.478.695.723.752.846 1.318 1.559 1.476 2.05.144.494-.106.744-.606.744h-1.75c-.469 0-.705-.263-1.215-.83-.216-.24-.481-.536-.835-.889-1.038-1.001-1.483-1.13-1.742-1.13-.353 0-.458.099-.458.599v1.57c0 .43-.138.68-1.25.68-1.854 0-3.891-1.126-5.338-3.202-2.169-3.04-2.762-5.34-2.762-5.803 0-.26.1-.495.6-.495h1.75c.447 0 .616.196.783.68.856 2.494 2.3 4.672 2.892 4.672.223 0 .325-.102.325-.667V9.733c-.04-.734-.296-1.05-.486-1.286-.117-.145-.21-.259-.21-.42 0-.195.168-.402.446-.402h2.75c.37 0 .5.198.5.643v3.467c0 .371.161.5.272.5.223 0 .408-.129.816-.537 1.26-1.409 2.15-3.578 2.15-3.578.112-.26.317-.495.762-.495h1.75z" clip-rule="evenodd"/></svg>