<svg width="24" height="24" fill="none" xmlns="http://www.w3.org/2000/svg"><path fill-rule="evenodd" clip-rule="evenodd" d="M8.32 0h7.36C22.4 0 24 1.6 24 8.32v7.36C24 22.4 22.4 24 15.68 24H8.32C1.6 24 0 22.4 0 15.68V8.32C0 1.6 1.6 0 8.32 0z" fill="#FF4B1F"/><path fill-rule="evenodd" clip-rule="evenodd" d="M19.654 8.268c.111-.37 0-.643-.529-.643h-1.75c-.445 0-.65.235-.761.495 0 0-.89 2.17-2.151 3.578-.408.408-.593.538-.816.538-.111 0-.272-.13-.272-.5V8.267c0-.445-.13-.643-.5-.643h-2.75c-.278 0-.445.207-.445.402 0 .422.63.52.695 1.706v2.577c0 .565-.102.667-.325.667-.593 0-2.036-2.178-2.892-4.672-.167-.484-.336-.68-.783-.68h-1.75c-.5 0-.6.235-.6.495 0 .463.593 2.762 2.762 5.803 1.447 2.076 3.484 3.202 5.338 3.202 1.112 0 1.25-.25 1.25-.68v-1.57c0-.5.105-.6.458-.6.26 0 .704.13 1.742 1.131 1.187 1.187 1.383 1.719 2.05 1.719h1.75c.5 0 .75-.25.606-.743-.158-.492-.725-1.206-1.476-2.051-.408-.482-1.02-1.001-1.205-1.26-.26-.335-.186-.483 0-.78 0 0 2.132-3.003 2.354-4.023z" fill="#fff"/></svg>