<svg xmlns="http://www.w3.org/2000/svg" width="24" height="24" fill="none"><path fill="#fff" fill-rule="evenodd" d="M.097 11.94C.077 5.594 5.08.316 11.418.014c6.966-.332 12.695 5.328 12.48 12.27-.203 6.476-5.605 11.62-12.083 11.52a11.849 11.849 0 0 1-5.115-1.24L.69 23.986a.463.463 0 0 1-.561-.544l1.264-6.134a11.85 11.85 0 0 1-1.296-5.37zM12 21.223c2.49 0 4.83-.97 6.59-2.73a9.337 9.337 0 0 0 2.73-6.59c0-2.49-.97-4.83-2.73-6.59A9.26 9.26 0 0 0 12 2.583a9.337 9.337 0 0 0-6.59 2.73 9.26 9.26 0 0 0-2.73 6.59c0 1.491.34 2.915 1.013 4.231l.412.808-.775 3.765 3.685-.873.837.417a9.221 9.221 0 0 0 4.148.972zm3.471-7.4l2.306.661a.86.86 0 0 1 .487 1.289c-.451.711-1.166 1.58-2.061 1.797-1.579.382-4.002.01-7.029-2.816-2.62-2.445-3.312-4.481-3.149-6.097.093-.916.857-1.743 1.5-2.287a.86.86 0 0 1 1.343.307l.97 2.194a.86.86 0 0 1-.106.873l-.493.637a.84.84 0 0 0-.066.93c.586 1.021 2.88 3.061 3.97 3.503a.84.84 0 0 0 .914-.193l.564-.575a.86.86 0 0 1 .85-.224z" clip-rule="evenodd"/></svg>