<svg width="66" height="64" fill="none" xmlns="http://www.w3.org/2000/svg"><path fill-rule="evenodd" clip-rule="evenodd" d="M26.056 43.19a1 1 0 0 0-.112-1.996c-7.201.401-13.538 1.407-18.103 2.814-2.276.702-4.17 1.52-5.516 2.452C1.012 47.368 0 48.545 0 50c0 1.676 1.335 2.987 3.006 3.975 1.738 1.027 4.186 1.918 7.124 2.652C16.021 58.1 24.106 59 33 59c7.164 0 13.798-.584 19.182-1.579a1 1 0 0 0-.364-1.966C46.575 56.422 40.064 57 33 57c-8.78 0-16.694-.89-22.385-2.313-2.853-.713-5.09-1.547-6.591-2.434C2.456 51.327 2 50.533 2 50c0-.453.324-1.107 1.464-1.896 1.106-.765 2.78-1.51 4.966-2.184 4.358-1.344 10.521-2.333 17.626-2.73zm14-1.996a1 1 0 1 0-.112 1.996c7.105.397 13.268 1.386 17.626 2.73 2.186.673 3.86 1.419 4.966 2.184C63.676 48.893 64 49.547 64 50c0 .333-.167.77-.734 1.311-.568.541-1.456 1.103-2.677 1.653a1 1 0 0 0 .822 1.824c1.328-.598 2.44-1.271 3.235-2.03C65.442 52 66 51.075 66 50c0-1.455-1.012-2.632-2.325-3.54-1.346-.932-3.24-1.75-5.516-2.452-4.565-1.407-10.902-2.413-18.103-2.814zM26.38 49.039a1 1 0 1 0-.762-1.85c-.686.283-1.304.631-1.767 1.06C23.39 48.675 23 49.265 23 50c0 .852.519 1.505 1.088 1.953.581.458 1.36.826 2.232 1.117 1.755.585 4.117.93 6.68.93 2.563 0 4.925-.345 6.68-.93.873-.29 1.651-.66 2.232-1.117C42.482 51.504 43 50.852 43 50c0-.734-.389-1.324-.852-1.752-.463-.428-1.081-.776-1.767-1.058a1 1 0 1 0-.762 1.849c.565.233.947.47 1.171.678.11.1.164.178.19.226a.225.225 0 0 1 .018.046l.002.01V50l-.003.015a.292.292 0 0 1-.032.066c-.043.07-.13.174-.291.301-.33.26-.87.539-1.626.79-1.502.501-3.64.828-6.048.828s-4.546-.327-6.048-.827c-.756-.252-1.296-.53-1.626-.79a1.236 1.236 0 0 1-.29-.302.292.292 0 0 1-.033-.066L25 50l.002-.011a.225.225 0 0 1 .019-.046.906.906 0 0 1 .189-.226c.224-.208.606-.445 1.17-.678z" fill="#DECDBA"/><path fill-rule="evenodd" clip-rule="evenodd" d="M28.357 8.853A12.968 12.968 0 0 1 33 8c7.18 0 13 5.82 13 13 0 6.235-2.207 12.203-4.886 17.141-2.675 4.932-5.786 8.772-7.512 10.732a.782.782 0 0 1-1.204 0c-1.726-1.96-4.837-5.8-7.512-10.732C22.207 33.203 20 27.235 20 21c0-3.638 1.493-6.925 3.902-9.286a1 1 0 1 0-1.4-1.428A14.958 14.958 0 0 0 18 21c0 6.69 2.361 12.995 5.128 18.095 2.77 5.107 5.984 9.072 7.769 11.1a2.781 2.781 0 0 0 4.206 0c1.785-2.028 4.998-5.993 7.769-11.1C45.639 33.995 48 27.69 48 21c0-8.284-6.716-15-15-15a14.96 14.96 0 0 0-5.357.985 1 1 0 1 0 .714 1.868zM29 21a4 4 0 1 1 8 0 4 4 0 0 1-8 0zm4-6a6 6 0 1 0 0 12 6 6 0 0 0 0-12z" fill="#FF4B1F"/></svg>