<svg width="66" height="66" fill="none" xmlns="http://www.w3.org/2000/svg"><path fill-rule="evenodd" clip-rule="evenodd" d="M12 0a4 4 0 0 0-4 4v1H5a5 5 0 0 0-5 5v40a5 5 0 0 0 5 5h24a1 1 0 1 0 0-2H5a3 3 0 0 1-3-3V17h47a1 1 0 1 0 0-2H2v-5a3 3 0 0 1 3-3h3v1a4 4 0 0 0 8 0V7h26v1a4 4 0 0 0 8 0V7h3a3 3 0 0 1 3 3v24.5a1 1 0 1 0 2 0V10a5 5 0 0 0-5-5h-3V4a4 4 0 0 0-8 0v1H16V4a4 4 0 0 0-4-4zm34 2a2 2 0 0 1 2 2v4a2 2 0 1 1-4 0V4a2 2 0 0 1 2-2zM14 4a2 2 0 1 0-4 0v4a2 2 0 1 0 4 0V4zm4 20a1 1 0 1 1 2 0 1 1 0 0 1-2 0zm1-3a3 3 0 1 0 0 6 3 3 0 0 0 0-6zm10 2a1 1 0 1 0 0 2 1 1 0 0 0 0-2zm-3 1a3 3 0 1 1 6 0 3 3 0 0 1-6 0zm12 0a1 1 0 1 1 2 0 1 1 0 0 1-2 0zm1-3a3 3 0 1 0 0 6 3 3 0 0 0 0-6zm10 2a1 1 0 1 0 0 2 1 1 0 0 0 0-2zm-3 1a3 3 0 1 1 6 0 3 3 0 0 1-6 0zM8 34a1 1 0 1 1 2 0 1 1 0 0 1-2 0zm1-3a3 3 0 1 0 0 6 3 3 0 0 0 0-6zm10 2a1 1 0 1 0 0 2 1 1 0 0 0 0-2zm-3 1a3 3 0 1 1 6 0 3 3 0 0 1-6 0zm12 0a1 1 0 1 1 2 0 1 1 0 0 1-2 0zm1-3a3 3 0 1 0 0 6 3 3 0 0 0 0-6zm10 2a1 1 0 0 0-1 1 1 1 0 1 1-2 0 3 3 0 0 1 3-3 1 1 0 1 1 0 2zM8 44a1 1 0 1 1 2 0 1 1 0 0 1-2 0zm1-3a3 3 0 1 0 0 6 3 3 0 0 0 0-6zm10 2a1 1 0 1 0 0 2 1 1 0 0 0 0-2zm-3 1a3 3 0 1 1 6 0 3 3 0 0 1-6 0zm12 0a1 1 0 0 1 1-1 1 1 0 1 0 0-2 3 3 0 1 0 0 6 1 1 0 1 0 0-2 1 1 0 0 1-1-1z" fill="#DECDBA"/><path fill-rule="evenodd" clip-rule="evenodd" d="M34 49c0-8.284 6.716-15 15-15 8.284 0 15 6.716 15 15 0 8.284-6.716 15-15 15-8.284 0-15-6.716-15-15zm15-17c-9.389 0-17 7.611-17 17s7.611 17 17 17 17-7.611 17-17-7.611-17-17-17zm8.193 8.344a2.496 2.496 0 0 0-2.554.603L46 49.586l-1.604-1.604a2.577 2.577 0 0 0-3.883 3.368l3.2 4.267a3 3 0 0 0 4.666.164l9.911-11.435a2.496 2.496 0 0 0-1.097-4.002zm-1.14 2.017a.496.496 0 0 1 .726.675l-9.91 11.435a1 1 0 0 1-1.557-.054l-3.2-4.267a.577.577 0 0 1 .87-.754l2.31 2.311a1 1 0 0 0 1.415 0l9.346-9.346z" fill="#FF4B1F"/></svg>