<svg xmlns="http://www.w3.org/2000/svg" width="24" height="24" fill="none"><rect width="24" height="24" fill="#DC4E41" rx="1"/><path fill="#fff" d="M13.99 13.01c-.41 2.696-2.42 4.241-5.022 4.241a5.295 5.295 0 0 1 0-10.59c1.415 0 2.654.505 3.556 1.381l-1.52 1.52c-.514-.518-1.218-.795-2.036-.795-1.721 0-3.117 1.468-3.117 3.189 0 1.722 1.396 3.147 3.117 3.147 1.443 0 2.536-.697 2.85-2.093h-2.85v-2.127h5.01c.06.343.09.701.09 1.073 0 .368-.026.72-.077 1.054zm6.36-.66h-1.856v1.855h-1.317V12.35H15.32v-1.319h1.856V9.176h1.317v1.855h1.856v1.32z"/></svg>