<svg width="24" height="24" fill="none" xmlns="http://www.w3.org/2000/svg"><g clip-path="url(#clip0)"><path fill="#fff" d="M2 2h20v20H2z"/><path d="M22.228 0H1.773C.793 0 0 .77 0 1.72v20.56C0 23.23.794 24 1.773 24h20.455c.979 0 1.772-.77 1.772-1.72V1.72C24 .77 23.207 0 22.228 0zM7.276 20.09H3.65V9.254h3.626V20.09zM5.463 7.774H5.44c-1.216 0-2.004-.832-2.004-1.873 0-1.062.811-1.871 2.051-1.871 1.24 0 2.003.808 2.027 1.87 0 1.042-.786 1.874-2.05 1.874zM20.347 20.09h-3.625v-5.798c0-1.457-.525-2.45-1.836-2.45-1.003 0-1.598.67-1.86 1.317-.096.232-.12.555-.12.878v6.053H9.28s.048-9.82 0-10.836h3.625v1.536c.481-.738 1.341-1.791 3.266-1.791 2.386 0 4.175 1.548 4.175 4.877v6.214zm-7.464-9.266a.56.56 0 0 1 .023-.034v.034h-.023z" fill="#FF4B1F"/></g><defs><clipPath id="clip0"><path fill="#fff" d="M0 0h24v24H0z"/></clipPath></defs></svg>