<svg width="24" height="24" viewBox="0 0 24 24" fill="none" xmlns="http://www.w3.org/2000/svg">
<g clip-path="url(#clip0)">
<path fill-rule="evenodd" clip-rule="evenodd" d="M2.43289 0.835049C3.49993 -0.234707 5.25599 -0.304958 6.34644 0.787756L9.74414 4.19392C10.8315 5.28502 10.7655 7.03995 9.69893 8.10958C9.69882 8.10969 9.69904 8.10947 9.69893 8.10958L9.13317 8.67731L8.51769 9.29327C9.08823 10.3121 9.84015 11.563 11.1528 12.8784C12.463 14.1926 13.7106 14.9457 14.7262 15.5159L15.9035 14.3362C16.9703 13.2667 18.7247 13.1985 19.8157 14.2876L19.8172 14.289L23.2159 17.6958C24.3021 18.7881 24.2347 20.5422 23.1702 21.6114C23.1627 21.619 23.155 21.6264 23.1472 21.6338L22.1562 22.5672C22.1343 22.5879 22.1114 22.6075 22.0877 22.6261C21.5989 23.0095 21.041 23.3258 20.4484 23.5578L20.4465 23.5586C19.8993 23.7716 19.3548 23.908 18.7872 23.976L18.7739 23.9776C18.2977 24.0282 12.8452 24.4408 6.2249 17.806C1.55173 13.1222 -0.427451 9.42261 0.0761483 5.22648C0.138933 4.67251 0.275021 4.12862 0.485245 3.57336L0.489054 3.5633C0.722503 2.96617 1.03819 2.40706 1.42174 1.91654C1.44036 1.89274 1.46004 1.86979 1.48073 1.84777L2.41211 0.856509C2.41893 0.849252 2.42585 0.842098 2.43289 0.835049ZM3.85758 2.23887L2.97104 3.18242C2.72471 3.50433 2.51377 3.87865 2.35376 4.28659C2.19753 4.70036 2.10516 5.08145 2.06313 5.45432L2.06229 5.4618C1.67023 8.71943 3.09039 11.8327 7.64066 16.3933C10.7206 19.48 13.4623 20.8696 15.4131 21.494C16.3913 21.8071 17.1789 21.9304 17.721 21.9758C18.2235 22.0179 18.5171 21.9931 18.5576 21.9892C18.9524 21.9412 19.3305 21.8468 19.7206 21.6949C20.1235 21.5371 20.4975 21.3259 20.8196 21.0786L21.7621 20.1909C22.0876 19.8544 22.0588 19.3689 21.798 19.1064C21.7979 19.1063 21.7981 19.1065 21.798 19.1064L18.4028 15.703C18.4025 15.7028 18.4023 15.7025 18.402 15.7023C18.1394 15.441 17.6531 15.4142 17.3196 15.7486L15.6077 17.464C15.2926 17.7797 14.8067 17.8486 14.4163 17.633C14.3065 17.5723 14.1931 17.5091 14.0741 17.4422C14.0734 17.4417 14.0726 17.4413 14.0718 17.4409C12.9779 16.8334 11.3957 15.9547 9.73676 14.2908C8.07948 12.6299 7.20286 11.048 6.59579 9.95251L6.58643 9.93563L6.58562 9.93416C6.57626 9.9172 6.56708 9.90056 6.55807 9.88422C6.50407 9.78633 6.45596 9.6991 6.40836 9.61564C6.18514 9.22431 6.25117 8.73203 6.56961 8.41335L8.28225 6.69784C8.61797 6.36127 8.59072 5.87024 8.32817 5.60637L4.93076 2.2005C4.93071 2.20045 4.93081 2.20055 4.93076 2.2005C4.67311 1.94248 4.19289 1.91149 3.85758 2.23887Z" fill="white"/>
</g>
<defs>
<clipPath id="clip0">
<rect width="24" height="24" fill="white"/>
</clipPath>
</defs>
</svg>
