<svg xmlns="http://www.w3.org/2000/svg" width="80" height="80" fill="none"><circle cx="40" cy="40" r="40" fill="#fff"/><path fill="#AAB4BF" fill-rule="evenodd" d="M67.68 26.021c5.875 11.63 3.953 26.186-5.76 35.9l-.329.324c-1.316-4.862-3.034-7.473-5.14-9.063-1.142-.862-2.345-1.384-3.529-1.816a61.765 61.765 0 0 0-1.228-.43c-.765-.262-1.51-.517-2.3-.855-1.433-.614-2.28-1.78-2.779-3.017A8.8 8.8 0 0 1 46 44v-.017a9.925 9.925 0 0 0 3.707-5.808c.402-.444.698-1.021.902-1.627A8.09 8.09 0 0 0 51 34c0-1.208-.24-2.36-.679-3.25C50.563 24.907 45.888 20 40 20s-10.563 4.907-10.321 10.75c-.44.89-.679 2.042-.679 3.25 0 .922.139 1.798.391 2.548.204.606.5 1.182.902 1.627a9.934 9.934 0 0 0 13.783 6.952c.095.764.294 1.717.684 2.684.626 1.554 1.779 3.222 3.846 4.108.856.367 1.73.666 2.537.943.383.131.75.257 1.093.382 1.112.407 2.1.847 3.01 1.534 1.734 1.31 3.377 3.67 4.669 8.981-11.491 9.654-28.339 9.654-39.83 0 1.292-5.312 2.935-7.672 4.67-8.981.908-.687 1.897-1.127 3.009-1.534.343-.125.71-.25 1.092-.382.808-.277 1.682-.576 2.538-.943 1.787-.766 2.894-2.119 3.564-3.476a1 1 0 1 0-1.794-.886c-.517 1.047-1.316 1.991-2.558 2.524-.79.338-1.535.593-2.3.855-.4.137-.807.276-1.229.43-1.183.432-2.387.954-3.528 1.816-2.106 1.59-3.824 4.2-5.14 9.063a32.43 32.43 0 0 1-.33-.325c-12.106-12.106-12.106-31.734 0-43.84 12.107-12.107 31.735-12.107 43.841 0a1 1 0 1 0 1.414-1.415c-12.887-12.887-33.781-12.887-46.669 0-12.887 12.887-12.887 33.782 0 46.67 12.888 12.887 33.782 12.887 46.67 0 10.341-10.343 12.383-25.839 6.13-38.216a1 1 0 0 0-1.786.902zm-35.99 4.883C31.357 26.089 35.173 22 40 22s8.643 4.09 8.31 8.904a1 1 0 0 0 .132.57c.315.544.558 1.445.558 2.526 0 .729-.111 1.387-.287 1.91-.182.54-.407.863-.577 1.01a1 1 0 0 0-.334.58 7.933 7.933 0 0 1-15.605 0 1 1 0 0 0-.333-.58c-.17-.147-.395-.47-.577-1.01A6.09 6.09 0 0 1 31 34c0-1.081.243-1.982.558-2.526a1 1 0 0 0 .132-.57z" clip-rule="evenodd"/></svg>