<svg xmlns="http://www.w3.org/2000/svg" width="34" height="33" fill="none"><path fill="#FF8C70" fill-rule="evenodd" d="M4.02 6.204a1 1 0 0 1 1.176-.785l6 1.2a1 1 0 1 1-.392 1.962l-6-1.2a1 1 0 0 1-.785-1.177zm9.204 3.026a1 1 0 0 1 1.162.805l1.198 6.586a1 1 0 1 1-1.968.358l-1.197-6.586a1 1 0 0 1 .805-1.163zm16.268 7.958a1 1 0 0 1-.868 1.117l-11.308 1.413a1 1 0 1 1-.248-1.984l11.308-1.414a1 1 0 0 1 1.116.868zm1.266 1.144a1 1 0 0 1 .805 1.162l-1.125 6.185a1 1 0 0 1-1.967-.358l1.124-6.184a1 1 0 0 1 1.163-.805zm-15.573 1.684a1 1 0 0 1 1.162.805l1.182 6.5a1 1 0 0 1-1.967.358l-1.182-6.5a1 1 0 0 1 .805-1.163zm12.301 8.236a1 1 0 0 1-.822 1.151l-7.234 1.206a1 1 0 1 1-.33-1.973l7.236-1.206a1 1 0 0 1 1.15.822z" clip-rule="evenodd"/><path fill="#fff" fill-rule="evenodd" d="M3 5a1 1 0 1 0 0 2 1 1 0 0 0 0-2zM0 6a3 3 0 1 1 6 0 3 3 0 0 1-6 0zm30 11a1 1 0 1 1 2 0 1 1 0 0 1-2 0zm1-3a3 3 0 1 0 0 6 3 3 0 0 0 0-6zm-3 14a1 1 0 1 1 2 0 1 1 0 0 1-2 0zm1-3a3 3 0 1 0 0 6 3 3 0 0 0 0-6zm-12 4a1 1 0 1 0 0 2 1 1 0 0 0 0-2zm-3 1a3 3 0 1 1 6 0 3 3 0 0 1-6 0zm0-11a1 1 0 1 1 2 0 1 1 0 0 1-2 0zm1-3a3 3 0 1 0 0 6 3 3 0 0 0 0-6zm-3-8a1 1 0 1 1 2 0 1 1 0 0 1-2 0zm1-3a3 3 0 1 0 0 6 3 3 0 0 0 0-6z" clip-rule="evenodd"/></svg>