<svg xmlns="http://www.w3.org/2000/svg" width="131" height="128" fill="none"><path stroke="#C9CED4" stroke-linecap="round" stroke-width="2" d="M9.42 67.69l2.07 7.728a4 4 0 0 0 4.9 2.828l5.212-1.396M7.867 61.895l-1.553-5.796-5.176-19.318a4 4 0 0 1 2.828-4.899L96.695 7.035a4 4 0 0 1 4.899 2.829L111.947 48.5a4 4 0 0 1-2.829 4.899l-21.25 5.694-8.266 2.215"/><path stroke="#C9CED4" stroke-dasharray="4 6" stroke-linecap="round" stroke-width="2" d="M23.284 26.706l6.212 23.181"/><path stroke="#FF4B1F" stroke-linecap="round" stroke-linejoin="round" stroke-width="2" d="M33.6 34.294L95.42 17.73M35.153 40.09l46.364-12.424M37.741 49.749l23.182-6.212m5.796-1.552l23.182-6.212"/><ellipse cx="100.217" cy="43.361" stroke="#C9CED4" stroke-width="2" rx="2" ry="2" transform="rotate(-15 100.217 43.361)"/><path stroke="#C9CED4" stroke-linecap="round" stroke-width="2" d="M92.49 45.432a2 2 0 1 0-1.415 2.45"/><ellipse cx="80.898" cy="48.538" stroke="#C9CED4" stroke-width="2" rx="2" ry="2" transform="rotate(-15 80.898 48.538)"/><path stroke="#C9CED4" stroke-linecap="round" stroke-width="2" d="M67.33 107.823L20.967 95.4a4 4 0 0 1-2.828-4.9l2.07-7.727m59.68 28.415l12.556 3.364 21.251 5.694a4 4 0 0 0 4.899-2.828l10.353-38.637a4 4 0 0 0-2.829-4.9l-92.73-24.845a4 4 0 0 0-4.899 2.829l-5.176 19.318-1.553 5.796"/><path stroke="#C9CED4" stroke-dasharray="4 6" stroke-linecap="round" stroke-width="2" d="M52.708 54.212l-12.423 46.364"/><path stroke="#FF4B1F" stroke-linecap="round" stroke-linejoin="round" stroke-width="2" d="M57.847 65.941l61.819 16.565M56.294 71.737L102.66 84.16m-48.954-2.764l23.182 6.212m5.796 1.552l23.181 6.212"/><ellipse cx="111.005" cy="107.102" stroke="#C9CED4" stroke-width="2" rx="2" ry="2" transform="rotate(15 111.005 107.102)"/><path stroke="#C9CED4" stroke-linecap="round" stroke-width="2" d="M103.278 105.032a2.001 2.001 0 1 0-2.45 1.414"/><ellipse cx="91.687" cy="101.926" stroke="#C9CED4" stroke-width="2" rx="2" ry="2" transform="rotate(15 91.687 101.926)"/></svg>