<svg xmlns="http://www.w3.org/2000/svg" width="24" height="24" fill="none"><path fill="#fff" fill-rule="evenodd" d="M24 12c0 6.627-5.372 11.999-12 11.999-6.627 0-11.999-5.372-11.999-12C.001 5.372 5.373 0 12.001 0 18.628 0 24 5.372 24 12zm-6.298-2.925a5.722 5.722 0 0 0 1.648-.451 5.817 5.817 0 0 1-1.432 1.484c.006.123.009.247.009.371 0 3.79-2.885 8.161-8.161 8.161a8.113 8.113 0 0 1-4.396-1.289 5.755 5.755 0 0 0 4.246-1.188 2.871 2.871 0 0 1-2.68-1.991 2.869 2.869 0 0 0 1.296-.05A2.87 2.87 0 0 1 5.93 11.31v-.036c.387.215.83.344 1.3.359a2.868 2.868 0 0 1-.888-3.83 8.142 8.142 0 0 0 5.912 2.998 2.869 2.869 0 0 1 4.888-2.616 5.742 5.742 0 0 0 1.82-.697 2.876 2.876 0 0 1-1.26 1.587z" clip-rule="evenodd"/></svg>