<svg width="24" height="24" fill="none" xmlns="http://www.w3.org/2000/svg"><path d="M11.418.014C5.08.316.078 5.594.097 11.94a11.85 11.85 0 0 0 1.296 5.369L.129 23.443a.463.463 0 0 0 .56.544L6.7 22.563a11.847 11.847 0 0 0 5.115 1.242c6.478.099 11.88-5.045 12.082-11.521.216-6.942-5.513-12.602-12.479-12.27z" fill="#FF4B1F"/><path d="M18.59 18.494a9.26 9.26 0 0 1-6.59 2.73 9.221 9.221 0 0 1-4.148-.973l-.837-.417-3.685.873.775-3.765-.412-.808a9.217 9.217 0 0 1-1.013-4.23c0-2.49.97-4.83 2.73-6.591A9.337 9.337 0 0 1 12 2.583c2.49 0 4.83.97 6.59 2.73a9.26 9.26 0 0 1 2.73 6.59 9.336 9.336 0 0 1-2.73 6.59z" fill="#fff"/><path d="M17.777 14.485l-2.306-.662a.86.86 0 0 0-.85.224l-.564.574a.84.84 0 0 1-.913.193c-1.09-.441-3.385-2.481-3.971-3.502a.84.84 0 0 1 .066-.93l.493-.637a.86.86 0 0 0 .106-.873l-.97-2.194a.86.86 0 0 0-1.343-.308c-.643.545-1.407 1.372-1.5 2.288-.163 1.615.53 3.652 3.15 6.097 3.026 2.825 5.45 3.198 7.027 2.816.896-.217 1.61-1.086 2.062-1.798a.86.86 0 0 0-.487-1.288z" fill="#FF4B1F"/></svg>