<svg xmlns="http://www.w3.org/2000/svg" width="129" height="128" fill="none"><path fill="#FF4B1F" fill-rule="evenodd" d="M27.68 62.361C26.112 64.837 25 68.657 25 74.001c0 9.952 2.898 16.51 6.807 20.753l.17.182c2.613-4.081 4.553-7.858 5.938-11.309 1.137-2.83 1.9-5.44 2.356-7.816a1 1 0 0 1 1.964.378c-.482 2.514-1.284 5.246-2.464 8.184-1.476 3.675-3.545 7.676-6.327 11.98 3.624 3.179 7.902 4.777 11.716 5.394a1 1 0 0 1-.32 1.974c-4.03-.651-8.594-2.33-12.51-5.687a102.64 102.64 0 0 1-2.512 3.542c-.77 1.149-1.654 1.951-2.763 2.112-1.106.161-2.095-.371-2.933-1.017-.851-.656-1.757-1.6-2.72-2.61l-.137-.143c-.946-.993-1.986-2.084-3.188-3.178a1 1 0 0 1 1.346-1.48c1.256 1.144 2.34 2.281 3.28 3.268l.146.152c.994 1.042 1.788 1.863 2.495 2.408.72.555 1.146.662 1.424.621.27-.039.736-.268 1.4-1.264l.014-.02.015-.02c.946-1.277 1.83-2.529 2.654-3.754a23.144 23.144 0 0 1-.515-.542C26.03 91.434 23 84.364 23 74c0-5.597 1.162-9.822 2.99-12.71 1.835-2.894 4.366-4.467 7.007-4.592 2.64-.126 5.179 1.204 6.993 3.68 1.81 2.47 2.914 6.08 2.816 10.644a1 1 0 0 1-2-.044c.091-4.233-.937-7.382-2.429-9.418-1.489-2.03-3.426-2.953-5.284-2.865-1.858.089-3.85 1.198-5.413 3.666zM0 89a1 1 0 0 1 1-1c5.244 0 9.385 1.299 12.719 3.123a1 1 0 1 1-.96 1.754C9.704 91.206 5.892 90 1 90a1 1 0 0 1-1-1z" clip-rule="evenodd"/><path fill="#fff" fill-rule="evenodd" d="M125.207 27.793a7.364 7.364 0 0 0-10.414 0l-2.833 2.833a5.002 5.002 0 0 0-6.496.495L81.293 55.293a1 1 0 0 0 1.414 1.414l24.172-24.172a3.001 3.001 0 0 1 3.639-.467L56.293 86.293a1 1 0 0 0-.198.281l-3.294 7a1 1 0 0 0 1.81.852l2.688-5.713 6.988 6.988-13.2 6.211 1.17-2.486a1 1 0 1 0-1.809-.852l-1.17 2.487c-.798 1.696.965 3.459 2.661 2.661l14.487-6.817c.104-.05.2-.116.281-.198l22-22a1 1 0 0 0-1.414-1.414L66 94.586 58.414 87 109 36.414 116.586 44 92.293 68.293a1 1 0 1 0 1.414 1.414L118.7 44.716l.008-.009.009-.008 6.491-6.492a7.364 7.364 0 0 0 0-10.414zM118 42.586L119.586 41 112 33.414 110.414 35 118 42.586zm3-3L113.414 32l2.793-2.793a5.364 5.364 0 0 1 7.586 7.586L121 39.586zm-18.293 9.121a1 1 0 1 0-1.414-1.414l-32 32a1 1 0 0 0 1.414 1.414l32-32z" clip-rule="evenodd"/></svg>